<svg width="24" height="24" viewBox="0 0 24 24" fill="none" xmlns="http://www.w3.org/2000/svg">
<g clip-path="url(#clip0_788_1368)">
<path d="M16 22.027V19.157C16.0375 18.6802 15.9731 18.2008 15.811 17.7508C15.6489 17.3008 15.3929 16.8904 15.06 16.547C18.2 16.197 21.5 15.007 21.5 9.54701C21.4997 8.15084 20.9627 6.80821 20 5.79701C20.4559 4.57552 20.4236 3.22536 19.91 2.02701C19.91 2.02701 18.73 1.67701 16 3.50701C13.708 2.88584 11.292 2.88584 9 3.50701C6.27 1.67701 5.09 2.02701 5.09 2.02701C4.57638 3.22536 4.54414 4.57552 5 5.79701C4.03013 6.81571 3.49252 8.17048 3.5 9.57701C3.5 14.997 6.8 16.187 9.94 16.577C9.611 16.917 9.35726 17.3224 9.19531 17.7669C9.03335 18.2114 8.96681 18.6851 9 19.157V22.027M9 20.027C6 21 3.5 20.027 2 17.027" stroke="white" stroke-width="1.53" stroke-linecap="round" stroke-linejoin="round"/>
</g>
<defs>
<clipPath id="clip0_788_1368">
<rect width="24" height="24" fill="white"/>
</clipPath>
</defs>
</svg>
